<svg xmlns="http://www.w3.org/2000/svg" width="14.137" height="14.2" viewBox="0 0 14.137 14.2">
    <g data-name="Group 970">
        <path data-name="Path 691" d="M12.077 35.751a1.462 1.462 0 0 0-1.06-.486 1.511 1.511 0 0 0-1.073.483l-.991.988c-.082-.044-.163-.085-.241-.125a3.791 3.791 0 0 1-.31-.166 10.771 10.771 0 0 1-2.581-2.352 6.355 6.355 0 0 1-.847-1.336c.257-.235.5-.48.728-.715l.263-.267a1.439 1.439 0 0 0 0-2.17l-.856-.856c-.1-.1-.2-.2-.292-.3-.188-.194-.386-.4-.59-.583a1.485 1.485 0 0 0-1.051-.461 1.536 1.536 0 0 0-1.066.461l-.006.006-1.066 1.077a2.294 2.294 0 0 0-.681 1.458 5.5 5.5 0 0 0 .4 2.327 13.5 13.5 0 0 0 2.4 4 14.759 14.759 0 0 0 4.914 3.848 7.657 7.657 0 0 0 2.76.815c.066 0 .135.006.2.006a2.363 2.363 0 0 0 1.81-.778c0-.006.009-.009.013-.016a7.129 7.129 0 0 1 .549-.568c.135-.129.273-.263.408-.4a1.565 1.565 0 0 0 .474-1.085 1.507 1.507 0 0 0-.483-1.076zm1.123 3.3c-.122.132-.248.251-.383.383a8.245 8.245 0 0 0-.605.627 1.512 1.512 0 0 1-1.179.5h-.144a6.8 6.8 0 0 1-2.446-.734 13.931 13.931 0 0 1-4.63-3.627 12.732 12.732 0 0 1-2.258-3.76 4.478 4.478 0 0 1-.355-1.964 1.44 1.44 0 0 1 .433-.931l1.069-1.069a.713.713 0 0 1 .477-.223.671.671 0 0 1 .458.22l.009.009c.191.179.373.364.565.561l.3.3.856.856a.6.6 0 0 1 0 .972c-.091.091-.179.182-.27.27-.263.27-.514.521-.787.765-.006.006-.013.009-.016.016a.64.64 0 0 0-.163.712l.009.028a6.874 6.874 0 0 0 1.013 1.653 11.511 11.511 0 0 0 2.785 2.534 4.281 4.281 0 0 0 .386.21c.113.056.22.11.31.166.013.006.025.016.038.022a.68.68 0 0 0 .31.078.671.671 0 0 0 .477-.216l1.073-1.073a.71.71 0 0 1 .474-.235.639.639 0 0 1 .452.229l.006.006 1.736 1.736a.62.62 0 0 1 0 .982z" transform="translate(-.245 -27.306)" style="fill:#d2d6df;stroke:#d2d6df;stroke-width:.2px"/>
    </g>
</svg>
